<mxfile host="Electron" modified="2024-07-15T17:42:41.450Z" agent="Mozilla/5.0 (Windows NT 10.0; Win64; x64) AppleWebKit/537.36 (KHTML, like Gecko) draw.io/22.1.2 Chrome/114.0.5735.289 Electron/25.9.4 Safari/537.36" etag="XkJ7B4wZzLQZcnONkx7O" version="22.1.2" type="device">
  <diagram name="Страница — 1" id="XX_0TuJLrhThxJye5d6c">
    <mxGraphModel dx="1292" dy="596" grid="1" gridSize="10" guides="1" tooltips="1" connect="1" arrows="1" fold="1" page="1" pageScale="1" pageWidth="827" pageHeight="1169" math="0" shadow="0">
      <root>
        <mxCell id="0" />
        <mxCell id="1" parent="0" />
        <mxCell id="Bab0vamEzlsWT-SZ4siZ-1" value="*" style="swimlane;html=1;startSize=20;fontStyle=0;collapsible=0;horizontal=0;swimlaneLine=1;swimlaneFillColor=#ffffff;strokeWidth=2;whiteSpace=wrap;container=0;movable=1;resizable=1;rotatable=1;deletable=1;editable=1;locked=0;connectable=1;" vertex="1" parent="1">
          <mxGeometry x="110" y="70" width="880" height="260" as="geometry" />
        </mxCell>
        <mxCell id="Bab0vamEzlsWT-SZ4siZ-2" value="Чат-бот" style="text;html=1;strokeColor=none;fillColor=none;align=center;verticalAlign=middle;whiteSpace=wrap;rounded=0;rotation=-90;" vertex="1" parent="Bab0vamEzlsWT-SZ4siZ-1">
          <mxGeometry x="-20" y="115" width="60" height="30" as="geometry" />
        </mxCell>
        <mxCell id="Bab0vamEzlsWT-SZ4siZ-4" style="edgeStyle=orthogonalEdgeStyle;rounded=0;orthogonalLoop=1;jettySize=auto;html=1;exitX=1;exitY=0.5;exitDx=0;exitDy=0;exitPerimeter=0;entryX=0;entryY=0.5;entryDx=0;entryDy=0;entryPerimeter=0;" edge="1" parent="Bab0vamEzlsWT-SZ4siZ-1" target="Bab0vamEzlsWT-SZ4siZ-3">
          <mxGeometry relative="1" as="geometry">
            <mxPoint x="470" y="116.875" as="sourcePoint" />
          </mxGeometry>
        </mxCell>
        <mxCell id="Bab0vamEzlsWT-SZ4siZ-5" style="rounded=0;orthogonalLoop=1;jettySize=auto;html=1;exitX=0.5;exitY=0;exitDx=0;exitDy=0;exitPerimeter=0;entryX=1;entryY=0.5;entryDx=0;entryDy=0;dashed=1;" edge="1" parent="Bab0vamEzlsWT-SZ4siZ-1" source="Bab0vamEzlsWT-SZ4siZ-6">
          <mxGeometry relative="1" as="geometry">
            <mxPoint x="370" y="45" as="targetPoint" />
          </mxGeometry>
        </mxCell>
        <mxCell id="Bab0vamEzlsWT-SZ4siZ-10" style="edgeStyle=orthogonalEdgeStyle;rounded=0;orthogonalLoop=1;jettySize=auto;html=1;exitX=1;exitY=0.5;exitDx=0;exitDy=0;exitPerimeter=0;entryX=0;entryY=0.5;entryDx=0;entryDy=0;entryPerimeter=0;" edge="1" parent="Bab0vamEzlsWT-SZ4siZ-1" target="Bab0vamEzlsWT-SZ4siZ-9">
          <mxGeometry relative="1" as="geometry">
            <mxPoint x="840" y="116.875" as="sourcePoint" />
          </mxGeometry>
        </mxCell>
        <mxCell id="Bab0vamEzlsWT-SZ4siZ-13" style="edgeStyle=orthogonalEdgeStyle;rounded=0;orthogonalLoop=1;jettySize=auto;html=1;exitX=1;exitY=0.5;exitDx=0;exitDy=0;exitPerimeter=0;entryX=0;entryY=0.5;entryDx=0;entryDy=0;entryPerimeter=0;" edge="1" parent="Bab0vamEzlsWT-SZ4siZ-1" target="Bab0vamEzlsWT-SZ4siZ-11">
          <mxGeometry relative="1" as="geometry">
            <mxPoint x="1240" y="108.125" as="sourcePoint" />
          </mxGeometry>
        </mxCell>
        <mxCell id="Bab0vamEzlsWT-SZ4siZ-16" style="rounded=0;orthogonalLoop=1;jettySize=auto;html=1;exitX=0.5;exitY=0;exitDx=0;exitDy=0;entryX=0.5;entryY=1;entryDx=0;entryDy=0;entryPerimeter=0;dashed=1;endArrow=none;endFill=0;startArrow=classic;startFill=1;" edge="1" parent="Bab0vamEzlsWT-SZ4siZ-1" target="Bab0vamEzlsWT-SZ4siZ-8">
          <mxGeometry relative="1" as="geometry">
            <mxPoint x="805" y="180" as="sourcePoint" />
          </mxGeometry>
        </mxCell>
        <mxCell id="Bab0vamEzlsWT-SZ4siZ-17" style="rounded=0;orthogonalLoop=1;jettySize=auto;html=1;exitX=0.5;exitY=0;exitDx=0;exitDy=0;entryX=0.5;entryY=1;entryDx=0;entryDy=0;entryPerimeter=0;dashed=1;endArrow=none;endFill=0;startArrow=classic;startFill=1;" edge="1" parent="Bab0vamEzlsWT-SZ4siZ-1" target="Bab0vamEzlsWT-SZ4siZ-12">
          <mxGeometry relative="1" as="geometry">
            <mxPoint x="1195" y="170" as="sourcePoint" />
          </mxGeometry>
        </mxCell>
        <mxCell id="Bab0vamEzlsWT-SZ4siZ-39" value="Вывод списка заметок" style="points=[[0.25,0,0],[0.5,0,0],[0.75,0,0],[1,0.25,0],[1,0.5,0],[1,0.75,0],[0.75,1,0],[0.5,1,0],[0.25,1,0],[0,0.75,0],[0,0.5,0],[0,0.25,0]];shape=mxgraph.bpmn.task;whiteSpace=wrap;rectStyle=rounded;size=10;html=1;container=1;expand=0;collapsible=0;taskMarker=abstract;" vertex="1" parent="Bab0vamEzlsWT-SZ4siZ-1">
          <mxGeometry x="150" y="90" width="70" height="70" as="geometry" />
        </mxCell>
        <mxCell id="Bab0vamEzlsWT-SZ4siZ-40" value="" style="shape=datastore;html=1;labelPosition=center;verticalLabelPosition=bottom;align=center;verticalAlign=top;" vertex="1" parent="Bab0vamEzlsWT-SZ4siZ-1">
          <mxGeometry x="170" y="190" width="60" height="60" as="geometry" />
        </mxCell>
        <mxCell id="Bab0vamEzlsWT-SZ4siZ-41" style="rounded=0;orthogonalLoop=1;jettySize=auto;html=1;exitX=0.5;exitY=0;exitDx=0;exitDy=0;entryX=0.5;entryY=1;entryDx=0;entryDy=0;entryPerimeter=0;dashed=1;" edge="1" parent="Bab0vamEzlsWT-SZ4siZ-1" source="Bab0vamEzlsWT-SZ4siZ-40" target="Bab0vamEzlsWT-SZ4siZ-39">
          <mxGeometry relative="1" as="geometry" />
        </mxCell>
        <mxCell id="Bab0vamEzlsWT-SZ4siZ-47" style="rounded=0;orthogonalLoop=1;jettySize=auto;html=1;exitX=0.5;exitY=1;exitDx=0;exitDy=0;exitPerimeter=0;entryX=0.5;entryY=0;entryDx=0;entryDy=0;dashed=1;" edge="1" parent="Bab0vamEzlsWT-SZ4siZ-1" source="Bab0vamEzlsWT-SZ4siZ-44" target="Bab0vamEzlsWT-SZ4siZ-46">
          <mxGeometry relative="1" as="geometry" />
        </mxCell>
        <mxCell id="Bab0vamEzlsWT-SZ4siZ-44" value="Удаление заметки" style="points=[[0.25,0,0],[0.5,0,0],[0.75,0,0],[1,0.25,0],[1,0.5,0],[1,0.75,0],[0.75,1,0],[0.5,1,0],[0.25,1,0],[0,0.75,0],[0,0.5,0],[0,0.25,0]];shape=mxgraph.bpmn.task;whiteSpace=wrap;rectStyle=rounded;size=10;html=1;container=1;expand=0;collapsible=0;taskMarker=abstract;" vertex="1" parent="Bab0vamEzlsWT-SZ4siZ-1">
          <mxGeometry x="410" y="90" width="70" height="70" as="geometry" />
        </mxCell>
        <mxCell id="Bab0vamEzlsWT-SZ4siZ-46" value="" style="shape=datastore;html=1;labelPosition=center;verticalLabelPosition=bottom;align=center;verticalAlign=top;" vertex="1" parent="Bab0vamEzlsWT-SZ4siZ-1">
          <mxGeometry x="430" y="190" width="60" height="60" as="geometry" />
        </mxCell>
        <mxCell id="Bab0vamEzlsWT-SZ4siZ-48" value="" style="points=[[0.25,0.25,0],[0.5,0,0],[0.75,0.25,0],[1,0.5,0],[0.75,0.75,0],[0.5,1,0],[0.25,0.75,0],[0,0.5,0]];shape=mxgraph.bpmn.gateway2;html=1;verticalLabelPosition=bottom;labelBackgroundColor=#ffffff;verticalAlign=top;align=center;perimeter=rhombusPerimeter;outlineConnect=0;outline=none;symbol=none;" vertex="1" parent="Bab0vamEzlsWT-SZ4siZ-1">
          <mxGeometry x="530" y="100" width="50" height="50" as="geometry" />
        </mxCell>
        <mxCell id="Bab0vamEzlsWT-SZ4siZ-50" style="edgeStyle=orthogonalEdgeStyle;rounded=0;orthogonalLoop=1;jettySize=auto;html=1;exitX=1;exitY=0.5;exitDx=0;exitDy=0;exitPerimeter=0;entryX=0;entryY=0.5;entryDx=0;entryDy=0;entryPerimeter=0;" edge="1" parent="Bab0vamEzlsWT-SZ4siZ-1" source="Bab0vamEzlsWT-SZ4siZ-44" target="Bab0vamEzlsWT-SZ4siZ-48">
          <mxGeometry relative="1" as="geometry" />
        </mxCell>
        <mxCell id="Bab0vamEzlsWT-SZ4siZ-51" style="edgeStyle=orthogonalEdgeStyle;rounded=0;orthogonalLoop=1;jettySize=auto;html=1;exitX=0.5;exitY=0;exitDx=0;exitDy=0;exitPerimeter=0;entryX=0.5;entryY=0;entryDx=0;entryDy=0;entryPerimeter=0;" edge="1" parent="Bab0vamEzlsWT-SZ4siZ-1" source="Bab0vamEzlsWT-SZ4siZ-48" target="Bab0vamEzlsWT-SZ4siZ-39">
          <mxGeometry relative="1" as="geometry">
            <Array as="points">
              <mxPoint x="555" y="50" />
              <mxPoint x="185" y="50" />
            </Array>
          </mxGeometry>
        </mxCell>
        <mxCell id="Bab0vamEzlsWT-SZ4siZ-54" value="Продолжение удаления заметок" style="edgeLabel;html=1;align=center;verticalAlign=middle;resizable=0;points=[];" vertex="1" connectable="0" parent="Bab0vamEzlsWT-SZ4siZ-51">
          <mxGeometry x="0.1975" y="-6" relative="1" as="geometry">
            <mxPoint y="-2" as="offset" />
          </mxGeometry>
        </mxCell>
        <mxCell id="Bab0vamEzlsWT-SZ4siZ-18" value="" style="swimlane;html=1;startSize=20;fontStyle=0;collapsible=0;horizontal=0;swimlaneLine=1;swimlaneFillColor=#ffffff;strokeWidth=2;whiteSpace=wrap;container=0;labelPosition=center;verticalLabelPosition=bottom;align=center;verticalAlign=top;movable=1;resizable=1;rotatable=1;deletable=1;editable=1;locked=0;connectable=1;" vertex="1" parent="1">
          <mxGeometry x="110" y="330" width="880" height="220" as="geometry" />
        </mxCell>
        <mxCell id="Bab0vamEzlsWT-SZ4siZ-19" value="Пользователь" style="text;html=1;strokeColor=none;fillColor=none;align=center;verticalAlign=middle;whiteSpace=wrap;rounded=0;rotation=-90;" vertex="1" parent="Bab0vamEzlsWT-SZ4siZ-18">
          <mxGeometry x="-20" y="90" width="60" height="30" as="geometry" />
        </mxCell>
        <mxCell id="Bab0vamEzlsWT-SZ4siZ-20" value="Выбор пункта меню" style="ellipse;whiteSpace=wrap;html=1;aspect=fixed;labelPosition=center;verticalLabelPosition=bottom;align=center;verticalAlign=top;" vertex="1" parent="Bab0vamEzlsWT-SZ4siZ-18">
          <mxGeometry x="40" y="79.5" width="55" height="55" as="geometry" />
        </mxCell>
        <mxCell id="Bab0vamEzlsWT-SZ4siZ-22" style="edgeStyle=orthogonalEdgeStyle;rounded=0;orthogonalLoop=1;jettySize=auto;html=1;exitX=1;exitY=0.5;exitDx=0;exitDy=0;exitPerimeter=0;entryX=0;entryY=0.5;entryDx=0;entryDy=0;entryPerimeter=0;" edge="1" parent="Bab0vamEzlsWT-SZ4siZ-18" target="Bab0vamEzlsWT-SZ4siZ-26">
          <mxGeometry relative="1" as="geometry">
            <mxPoint x="1433.9999999999995" y="75.25" as="sourcePoint" />
          </mxGeometry>
        </mxCell>
        <mxCell id="Bab0vamEzlsWT-SZ4siZ-42" value="Выбор из списка" style="points=[[0.25,0,0],[0.5,0,0],[0.75,0,0],[1,0.25,0],[1,0.5,0],[1,0.75,0],[0.75,1,0],[0.5,1,0],[0.25,1,0],[0,0.75,0],[0,0.5,0],[0,0.25,0]];shape=mxgraph.bpmn.task;whiteSpace=wrap;rectStyle=rounded;size=10;html=1;container=1;expand=0;collapsible=0;taskMarker=abstract;" vertex="1" parent="Bab0vamEzlsWT-SZ4siZ-18">
          <mxGeometry x="270" y="78.5" width="94.5" height="63" as="geometry" />
        </mxCell>
        <mxCell id="Bab0vamEzlsWT-SZ4siZ-59" value="" style="edgeStyle=orthogonalEdgeStyle;rounded=0;orthogonalLoop=1;jettySize=auto;html=1;" edge="1" parent="Bab0vamEzlsWT-SZ4siZ-18" source="Bab0vamEzlsWT-SZ4siZ-55" target="Bab0vamEzlsWT-SZ4siZ-58">
          <mxGeometry relative="1" as="geometry" />
        </mxCell>
        <mxCell id="Bab0vamEzlsWT-SZ4siZ-55" value="Нажатие на кнопку &#39;назад&#39;" style="points=[[0.25,0,0],[0.5,0,0],[0.75,0,0],[1,0.25,0],[1,0.5,0],[1,0.75,0],[0.75,1,0],[0.5,1,0],[0.25,1,0],[0,0.75,0],[0,0.5,0],[0,0.25,0]];shape=mxgraph.bpmn.task;whiteSpace=wrap;rectStyle=rounded;size=10;html=1;container=1;expand=0;collapsible=0;taskMarker=abstract;" vertex="1" parent="Bab0vamEzlsWT-SZ4siZ-18">
          <mxGeometry x="650" y="85" width="80" height="60" as="geometry" />
        </mxCell>
        <mxCell id="Bab0vamEzlsWT-SZ4siZ-58" value="" style="points=[[0.145,0.145,0],[0.5,0,0],[0.855,0.145,0],[1,0.5,0],[0.855,0.855,0],[0.5,1,0],[0.145,0.855,0],[0,0.5,0]];shape=mxgraph.bpmn.event;html=1;verticalLabelPosition=bottom;labelBackgroundColor=#ffffff;verticalAlign=top;align=center;perimeter=ellipsePerimeter;outlineConnect=0;aspect=fixed;outline=end;symbol=terminate2;" vertex="1" parent="Bab0vamEzlsWT-SZ4siZ-18">
          <mxGeometry x="800" y="90" width="50" height="50" as="geometry" />
        </mxCell>
        <mxCell id="Bab0vamEzlsWT-SZ4siZ-28" style="edgeStyle=orthogonalEdgeStyle;rounded=0;orthogonalLoop=1;jettySize=auto;html=1;exitX=1;exitY=0.5;exitDx=0;exitDy=0;entryX=0;entryY=0.5;entryDx=0;entryDy=0;entryPerimeter=0;" edge="1" parent="1" source="Bab0vamEzlsWT-SZ4siZ-20" target="Bab0vamEzlsWT-SZ4siZ-39">
          <mxGeometry relative="1" as="geometry">
            <mxPoint x="250" y="173.13" as="targetPoint" />
          </mxGeometry>
        </mxCell>
        <mxCell id="Bab0vamEzlsWT-SZ4siZ-43" style="edgeStyle=orthogonalEdgeStyle;rounded=0;orthogonalLoop=1;jettySize=auto;html=1;exitX=1;exitY=0.5;exitDx=0;exitDy=0;exitPerimeter=0;entryX=0;entryY=0.5;entryDx=0;entryDy=0;entryPerimeter=0;" edge="1" parent="1" source="Bab0vamEzlsWT-SZ4siZ-39" target="Bab0vamEzlsWT-SZ4siZ-42">
          <mxGeometry relative="1" as="geometry" />
        </mxCell>
        <mxCell id="Bab0vamEzlsWT-SZ4siZ-45" style="edgeStyle=orthogonalEdgeStyle;rounded=0;orthogonalLoop=1;jettySize=auto;html=1;exitX=1;exitY=0.5;exitDx=0;exitDy=0;exitPerimeter=0;entryX=0;entryY=0.5;entryDx=0;entryDy=0;entryPerimeter=0;" edge="1" parent="1" source="Bab0vamEzlsWT-SZ4siZ-42" target="Bab0vamEzlsWT-SZ4siZ-44">
          <mxGeometry relative="1" as="geometry" />
        </mxCell>
        <mxCell id="Bab0vamEzlsWT-SZ4siZ-56" style="edgeStyle=orthogonalEdgeStyle;rounded=0;orthogonalLoop=1;jettySize=auto;html=1;exitX=1;exitY=0.5;exitDx=0;exitDy=0;exitPerimeter=0;entryX=0;entryY=0.5;entryDx=0;entryDy=0;entryPerimeter=0;" edge="1" parent="1" source="Bab0vamEzlsWT-SZ4siZ-48" target="Bab0vamEzlsWT-SZ4siZ-55">
          <mxGeometry relative="1" as="geometry" />
        </mxCell>
        <mxCell id="Bab0vamEzlsWT-SZ4siZ-57" value="Выход" style="edgeLabel;html=1;align=center;verticalAlign=middle;resizable=0;points=[];" vertex="1" connectable="0" parent="Bab0vamEzlsWT-SZ4siZ-56">
          <mxGeometry x="-0.5456" y="5" relative="1" as="geometry">
            <mxPoint x="14" y="48" as="offset" />
          </mxGeometry>
        </mxCell>
      </root>
    </mxGraphModel>
  </diagram>
</mxfile>
